<svg xmlns="http://www.w3.org/2000/svg" xmlns:xlink="http://www.w3.org/1999/xlink" width="550" zoomAndPan="magnify" viewBox="0 0 412.5 141.000003" height="188" preserveAspectRatio="xMidYMid meet" version="1.0"><defs><g/><clipPath id="278847b0a8"><path d="M 1.203125 51.816406 L 263 51.816406 L 263 99 L 1.203125 99 Z M 1.203125 51.816406 " clip-rule="nonzero"/></clipPath><clipPath id="231f45ae3e"><path d="M 30 103 L 163 103 L 163 139.691406 L 30 139.691406 Z M 30 103 " clip-rule="nonzero"/></clipPath><clipPath id="2722dc1460"><path d="M 1.203125 0 L 155 0 L 155 53 L 1.203125 53 Z M 1.203125 0 " clip-rule="nonzero"/></clipPath><clipPath id="0d0a894e53"><rect x="0" width="154" y="0" height="53"/></clipPath><clipPath id="dcfe7cac34"><rect x="0" width="147" y="0" height="103"/></clipPath></defs><g clip-path="url(#278847b0a8)"><path fill="#f3e7d3" d="M 14.148438 98.257812 C 11.617188 98.257812 9.386719 97.707031 7.460938 96.601562 C 5.535156 95.460938 4.035156 93.890625 2.964844 91.890625 C 1.894531 89.855469 1.359375 87.519531 1.359375 84.882812 C 1.359375 81.707031 2.144531 78.925781 3.714844 76.535156 C 5.320312 74.144531 7.585938 72.304688 10.511719 71.019531 C 13.46875 69.738281 16.929688 69.097656 20.890625 69.097656 C 22.710938 69.097656 24.191406 69.21875 25.335938 69.46875 L 25.335938 68.347656 C 25.335938 65.636719 24.835938 63.617188 23.835938 62.296875 C 22.835938 60.941406 21.320312 60.261719 19.285156 60.261719 C 16.003906 60.261719 13.898438 61.992188 12.96875 65.453125 C 12.6875 66.453125 12.097656 66.878906 11.203125 66.738281 L 3.925781 65.453125 C 3.390625 65.347656 3.019531 65.113281 2.804688 64.753906 C 2.625 64.398438 2.605469 63.917969 2.75 63.3125 C 3.675781 59.671875 5.640625 56.855469 8.636719 54.855469 C 11.667969 52.832031 15.46875 51.816406 20.035156 51.816406 C 25.457031 51.816406 29.574219 53.277344 32.394531 56.199219 C 35.25 59.125 36.675781 63.390625 36.675781 68.988281 L 36.675781 95.902344 C 36.675781 96.292969 36.535156 96.636719 36.246094 96.921875 C 35.996094 97.171875 35.675781 97.292969 35.28125 97.292969 L 28.328125 97.292969 C 27.472656 97.292969 26.9375 96.828125 26.722656 95.902344 L 25.652344 90.871094 L 25.222656 90.871094 C 24.257812 93.226562 22.8125 95.042969 20.886719 96.328125 C 18.996094 97.613281 16.75 98.253906 14.148438 98.253906 Z M 13.027344 83.597656 C 13.027344 85.488281 13.507812 87.007812 14.46875 88.148438 C 15.46875 89.253906 16.808594 89.804688 18.484375 89.804688 C 20.695312 89.804688 22.390625 88.824219 23.566406 86.863281 C 24.742188 84.867188 25.335938 82.011719 25.335938 78.300781 L 25.335938 75.464844 C 24.335938 75.285156 23.390625 75.195312 22.496094 75.195312 C 19.570312 75.195312 17.25 75.964844 15.539062 77.5 C 13.863281 79 13.027344 81.03125 13.027344 83.597656 Z M 43.308594 54.167969 C 43.308594 53.777344 43.4375 53.453125 43.683594 53.203125 C 43.96875 52.917969 44.304688 52.777344 44.699219 52.777344 L 51.761719 52.777344 C 52.152344 52.777344 52.476562 52.898438 52.726562 53.148438 C 53.011719 53.398438 53.191406 53.738281 53.261719 54.167969 L 54.332031 59.410156 L 54.761719 59.410156 C 55.726562 56.949219 57.097656 55.078125 58.878906 53.792969 C 60.699219 52.472656 62.839844 51.816406 65.300781 51.816406 C 67.941406 51.816406 70.203125 52.511719 72.09375 53.902344 C 74.019531 55.292969 75.503906 57.273438 76.539062 59.839844 L 76.96875 59.839844 C 78.535156 57.128906 80.300781 55.113281 82.265625 53.792969 C 84.226562 52.472656 86.417969 51.816406 88.84375 51.816406 C 91.484375 51.816406 93.765625 52.527344 95.695312 53.953125 C 97.65625 55.378906 99.15625 57.414062 100.191406 60.054688 C 101.226562 62.695312 101.742188 65.816406 101.742188 69.417969 L 101.742188 95.90625 C 101.742188 96.296875 101.597656 96.640625 101.3125 96.925781 C 101.0625 97.175781 100.742188 97.296875 100.347656 97.296875 L 91.789062 97.296875 C 91.398438 97.296875 91.054688 97.175781 90.769531 96.925781 C 90.519531 96.640625 90.398438 96.300781 90.398438 95.90625 L 90.398438 70.273438 C 90.398438 67.671875 89.898438 65.675781 88.898438 64.285156 C 87.898438 62.894531 86.453125 62.195312 84.5625 62.195312 C 82.492188 62.195312 80.90625 63.015625 79.800781 64.65625 C 78.730469 66.296875 78.195312 68.667969 78.195312 71.773438 L 78.195312 95.90625 C 78.195312 96.296875 78.050781 96.640625 77.765625 96.925781 C 77.515625 97.175781 77.195312 97.296875 76.800781 97.296875 L 68.238281 97.296875 C 67.847656 97.296875 67.507812 97.175781 67.222656 96.925781 C 66.972656 96.640625 66.847656 96.300781 66.847656 95.90625 L 66.847656 70.273438 C 66.847656 67.671875 66.347656 65.675781 65.351562 64.285156 C 64.351562 62.894531 62.90625 62.195312 61.015625 62.195312 C 58.945312 62.195312 57.359375 63.015625 56.253906 64.65625 C 55.183594 66.296875 54.648438 68.667969 54.648438 71.773438 L 54.648438 95.90625 C 54.648438 96.296875 54.507812 96.640625 54.21875 96.925781 C 53.96875 97.175781 53.648438 97.296875 53.253906 97.296875 L 44.691406 97.296875 C 44.300781 97.296875 43.960938 97.175781 43.675781 96.925781 C 43.425781 96.640625 43.300781 96.300781 43.300781 95.90625 L 43.300781 54.167969 Z M 107.304688 84.882812 C 107.304688 81.707031 108.089844 78.925781 109.660156 76.535156 C 111.265625 74.144531 113.527344 72.304688 116.453125 71.019531 C 119.414062 69.738281 122.875 69.097656 126.835938 69.097656 C 128.65625 69.097656 130.132812 69.21875 131.277344 69.46875 L 131.277344 68.347656 C 131.277344 65.636719 130.777344 63.617188 129.777344 62.296875 C 128.777344 60.941406 127.265625 60.261719 125.230469 60.261719 C 121.949219 60.261719 119.84375 61.992188 118.914062 65.453125 C 118.628906 66.453125 118.042969 66.878906 117.148438 66.738281 L 109.871094 65.453125 C 109.335938 65.347656 108.964844 65.113281 108.75 64.753906 C 108.570312 64.398438 108.550781 63.917969 108.695312 63.3125 C 109.621094 59.671875 111.585938 56.855469 114.582031 54.855469 C 117.617188 52.832031 121.414062 51.816406 125.980469 51.816406 C 131.402344 51.816406 135.519531 53.277344 138.339844 56.199219 C 141.195312 59.125 142.621094 63.390625 142.621094 68.988281 L 142.621094 95.902344 C 142.621094 96.292969 142.476562 96.636719 142.191406 96.921875 C 141.941406 97.171875 141.621094 97.292969 141.226562 97.292969 L 134.269531 97.292969 C 133.414062 97.292969 132.878906 96.828125 132.664062 95.902344 L 131.59375 90.871094 L 131.164062 90.871094 C 130.203125 93.226562 128.757812 95.042969 126.832031 96.328125 C 124.941406 97.613281 122.695312 98.253906 120.089844 98.253906 C 117.484375 98.253906 115.328125 97.703125 113.402344 96.597656 C 111.476562 95.457031 109.976562 93.886719 108.90625 91.886719 C 107.835938 89.851562 107.300781 87.519531 107.300781 84.878906 Z M 118.972656 83.597656 C 118.972656 85.488281 119.453125 87.007812 120.414062 88.148438 C 121.414062 89.253906 122.753906 89.804688 124.429688 89.804688 C 126.640625 89.804688 128.335938 88.824219 129.511719 86.863281 C 130.6875 84.867188 131.277344 82.011719 131.277344 78.300781 L 131.277344 75.464844 C 130.277344 75.285156 129.335938 75.195312 128.441406 75.195312 C 125.515625 75.195312 123.195312 75.964844 121.484375 77.5 C 119.808594 79 118.972656 81.03125 118.972656 83.597656 Z M 148.402344 89.429688 C 148.402344 88.644531 148.617188 87.96875 149.042969 87.394531 L 167.339844 61.761719 L 150.21875 61.761719 C 149.828125 61.761719 149.484375 61.640625 149.199219 61.390625 C 148.949219 61.105469 148.828125 60.765625 148.828125 60.371094 L 148.828125 54.167969 C 148.828125 53.777344 148.953125 53.453125 149.199219 53.203125 C 149.484375 52.917969 149.824219 52.777344 150.21875 52.777344 L 178.363281 52.777344 C 178.757812 52.777344 179.078125 52.917969 179.328125 53.203125 C 179.613281 53.453125 179.757812 53.773438 179.757812 54.167969 L 179.757812 60.644531 C 179.757812 61.429688 179.542969 62.105469 179.117188 62.679688 L 162.527344 85.472656 C 163.527344 85.292969 164.546875 85.203125 165.578125 85.203125 C 168.148438 85.203125 170.5 85.4375 172.640625 85.902344 C 174.8125 86.332031 177.058594 87.042969 179.378906 88.042969 C 180.199219 88.398438 180.613281 89.007812 180.613281 89.863281 L 180.613281 96.015625 C 180.613281 96.585938 180.433594 96.980469 180.078125 97.191406 C 179.722656 97.371094 179.273438 97.355469 178.738281 97.140625 C 176.0625 96.140625 173.691406 95.445312 171.621094 95.050781 C 169.585938 94.621094 167.359375 94.410156 164.933594 94.410156 C 162.507812 94.410156 160.1875 94.625 157.871094 95.050781 C 155.589844 95.480469 153.054688 96.175781 150.273438 97.140625 C 149.738281 97.316406 149.292969 97.316406 148.9375 97.140625 C 148.582031 96.925781 148.402344 96.550781 148.402344 96.015625 Z M 182.964844 75.039062 C 182.964844 70.6875 183.800781 66.746094 185.476562 63.214844 C 187.152344 59.648438 189.457031 56.863281 192.382812 54.867188 C 195.34375 52.832031 198.625 51.816406 202.226562 51.816406 C 205.828125 51.816406 209.148438 52.832031 212.074219 54.863281 C 215.035156 56.859375 217.355469 59.644531 219.03125 63.210938 C 220.742188 66.742188 221.601562 70.683594 221.601562 75.035156 C 221.601562 79.386719 220.746094 83.347656 219.03125 86.914062 C 217.355469 90.441406 215.035156 93.226562 212.074219 95.257812 C 209.148438 97.253906 205.867188 98.253906 202.226562 98.253906 C 198.585938 98.253906 195.339844 97.253906 192.382812 95.257812 C 189.457031 93.222656 187.15625 90.441406 185.476562 86.914062 C 183.800781 83.347656 182.964844 79.386719 182.964844 75.035156 Z M 194.734375 75.039062 C 194.734375 79.570312 195.375 83.066406 196.660156 85.523438 C 197.945312 87.949219 199.800781 89.164062 202.226562 89.164062 C 204.652344 89.164062 206.527344 87.949219 207.84375 85.523438 C 209.164062 83.066406 209.824219 79.570312 209.824219 75.039062 C 209.824219 70.507812 209.164062 67.03125 207.84375 64.605469 C 206.527344 62.144531 204.652344 60.910156 202.226562 60.910156 C 199.800781 60.910156 197.945312 62.144531 196.660156 64.605469 C 195.375 67.03125 194.734375 70.507812 194.734375 75.039062 Z M 227.375 54.167969 C 227.375 53.777344 227.503906 53.453125 227.75 53.203125 C 228.035156 52.917969 228.371094 52.777344 228.765625 52.777344 L 235.828125 52.777344 C 236.21875 52.777344 236.542969 52.898438 236.792969 53.148438 C 237.078125 53.398438 237.257812 53.738281 237.328125 54.167969 L 238.398438 59.410156 L 238.828125 59.410156 C 239.792969 56.984375 241.199219 55.113281 243.054688 53.792969 C 244.945312 52.472656 247.15625 51.816406 249.6875 51.816406 C 252.398438 51.816406 254.738281 52.527344 256.699219 53.953125 C 258.695312 55.378906 260.226562 57.414062 261.296875 60.054688 C 262.367188 62.695312 262.902344 65.816406 262.902344 69.417969 L 262.902344 95.90625 C 262.902344 96.296875 262.757812 96.640625 262.472656 96.925781 C 262.222656 97.175781 261.902344 97.296875 261.507812 97.296875 L 252.949219 97.296875 C 252.558594 97.296875 252.214844 97.175781 251.929688 96.925781 C 251.679688 96.640625 251.558594 96.300781 251.558594 95.90625 L 251.558594 70.273438 C 251.558594 67.671875 251.023438 65.675781 249.953125 64.285156 C 248.882812 62.894531 247.363281 62.195312 245.402344 62.195312 C 243.230469 62.195312 241.570312 63.015625 240.425781 64.65625 C 239.285156 66.296875 238.714844 68.667969 238.714844 71.773438 L 238.714844 95.90625 C 238.714844 96.296875 238.574219 96.640625 238.285156 96.925781 C 238.035156 97.175781 237.714844 97.296875 237.320312 97.296875 L 228.761719 97.296875 C 228.371094 97.296875 228.027344 97.175781 227.742188 96.925781 C 227.492188 96.640625 227.371094 96.300781 227.371094 95.90625 L 227.371094 54.167969 Z M 227.375 54.167969 " fill-opacity="1" fill-rule="nonzero"/></g><g clip-path="url(#231f45ae3e)"><path fill="#ff6201" d="M 31.109375 103.445312 C 30.429688 103.980469 30.289062 104.871094 30.679688 106.121094 C 31.035156 107.226562 31.875 108.601562 33.195312 110.242188 C 38.511719 116.808594 44.839844 122.261719 52.191406 126.613281 C 59.539062 130.964844 67.40625 134.175781 75.789062 136.246094 C 84.203125 138.351562 92.800781 139.402344 101.578125 139.402344 C 112.8125 139.402344 123.515625 137.761719 133.683594 134.484375 C 143.847656 131.238281 152.339844 126.671875 159.152344 120.785156 C 161.542969 118.679688 162.734375 117.003906 162.734375 115.753906 C 162.734375 115.289062 162.539062 114.828125 162.148438 114.363281 C 161.613281 113.828125 160.972656 113.648438 160.222656 113.828125 C 159.472656 114.007812 158.421875 114.453125 157.066406 115.167969 C 150.539062 118.589844 142.582031 121.320312 133.199219 123.355469 C 123.855469 125.425781 114.097656 126.460938 103.933594 126.460938 C 91.339844 126.460938 79.175781 124.75 67.441406 121.324219 C 55.703125 117.898438 45.304688 112.546875 36.246094 105.269531 C 34.925781 104.234375 33.855469 103.578125 33.035156 103.292969 C 32.25 103.007812 31.609375 103.058594 31.109375 103.453125 Z M 31.109375 103.445312 " fill-opacity="1" fill-rule="nonzero"/></g><path fill="#ff6201" d="M 150.003906 106.125 C 149.253906 106.839844 149.054688 107.585938 149.414062 108.371094 C 149.664062 108.941406 150.148438 109.261719 150.859375 109.335938 C 151.574219 109.441406 152.585938 109.371094 153.90625 109.121094 C 156.046875 108.65625 158.277344 108.335938 160.597656 108.15625 C 162.914062 108.015625 164.929688 108.050781 166.644531 108.261719 C 168.355469 108.511719 169.425781 108.941406 169.855469 109.546875 C 170.496094 110.511719 170.261719 112.542969 169.15625 115.648438 C 168.085938 118.753906 166.625 121.765625 164.769531 124.691406 C 164.054688 125.867188 163.628906 126.796875 163.484375 127.472656 C 163.34375 128.148438 163.519531 128.722656 164.019531 129.183594 C 164.339844 129.503906 164.695312 129.667969 165.089844 129.667969 C 166.125 129.667969 167.625 128.757812 169.585938 126.9375 C 173.117188 123.871094 175.597656 120.230469 177.023438 116.023438 C 177.808594 113.847656 178.292969 111.5625 178.46875 109.171875 C 178.648438 106.78125 178.378906 105.070312 177.664062 104.035156 C 176.988281 103.035156 175.492188 102.214844 173.171875 101.574219 C 170.890625 100.933594 168.585938 100.609375 166.265625 100.609375 C 161.738281 100.609375 157.4375 101.679688 153.371094 103.820312 C 151.871094 104.640625 150.75 105.40625 150 106.121094 Z M 150.003906 106.125 " fill-opacity="1" fill-rule="nonzero"/><g clip-path="url(#2722dc1460)"><g transform="matrix(1, 0, 0, 1, 1, 0.000000000000002913)"><g clip-path="url(#0d0a894e53)"><g fill="#f3e7d3" fill-opacity="1"><g transform="translate(0.215803, 42.29169)"><g><path d="M 21.5 -23.5 C 21.5 -20.226562 20.082031 -17.914062 17.25 -16.5625 C 20.8125 -15.5 22.59375 -12.960938 22.59375 -8.953125 C 22.59375 -6.179688 21.789062 -3.992188 20.1875 -2.390625 C 18.59375 -0.796875 15.992188 0 12.390625 0 L 3.484375 0 L 3.484375 -31.546875 L 12 -31.546875 C 15.175781 -31.546875 17.550781 -30.828125 19.125 -29.390625 C 20.707031 -27.953125 21.5 -25.988281 21.5 -23.5 Z M 7.359375 -18.03125 L 11.921875 -18.03125 C 13.984375 -18.03125 15.453125 -18.476562 16.328125 -19.375 C 17.203125 -20.269531 17.640625 -21.539062 17.640625 -23.1875 C 17.640625 -24.21875 17.453125 -25.097656 17.078125 -25.828125 C 16.710938 -26.554688 16.046875 -27.125 15.078125 -27.53125 C 14.117188 -27.9375 12.800781 -28.140625 11.125 -28.140625 L 7.359375 -28.140625 Z M 7.359375 -3.40625 L 11.703125 -3.40625 C 13.222656 -3.40625 14.484375 -3.5625 15.484375 -3.875 C 16.492188 -4.1875 17.273438 -4.757812 17.828125 -5.59375 C 18.390625 -6.425781 18.671875 -7.601562 18.671875 -9.125 C 18.671875 -10.488281 18.410156 -11.570312 17.890625 -12.375 C 17.367188 -13.175781 16.578125 -13.75 15.515625 -14.09375 C 14.460938 -14.445312 13.097656 -14.625 11.421875 -14.625 L 7.359375 -14.625 Z M 7.359375 -3.40625 "/></g></g></g><g fill="#f3e7d3" fill-opacity="1"><g transform="translate(24.740498, 42.29169)"><g><path d="M 16.03125 0 L 16.03125 -3.328125 C 14.28125 -0.804688 12.019531 0.453125 9.25 0.453125 C 6.957031 0.453125 5.285156 -0.210938 4.234375 -1.546875 C 3.191406 -2.878906 2.671875 -4.984375 2.671875 -7.859375 L 2.671875 -22.84375 L 6.296875 -22.84375 L 6.296875 -8.171875 C 6.296875 -6.859375 6.414062 -5.796875 6.65625 -4.984375 C 6.894531 -4.179688 7.300781 -3.582031 7.875 -3.1875 C 8.457031 -2.800781 9.269531 -2.609375 10.3125 -2.609375 C 12.007812 -2.609375 13.328125 -3.257812 14.265625 -4.5625 C 15.210938 -5.863281 15.6875 -7.640625 15.6875 -9.890625 L 15.6875 -22.84375 L 19.328125 -22.84375 L 19.328125 0 Z M 16.03125 0 "/></g></g></g><g fill="#f3e7d3" fill-opacity="1"><g transform="translate(46.812724, 42.29169)"><g><path d="M 5.0625 9.265625 C 4.46875 9.265625 3.847656 9.207031 3.203125 9.09375 C 2.554688 8.976562 1.96875 8.835938 1.4375 8.671875 L 2.171875 5.546875 C 3.035156 5.847656 3.78125 6 4.40625 6 C 4.976562 6 5.453125 5.859375 5.828125 5.578125 C 6.203125 5.296875 6.488281 4.957031 6.6875 4.5625 C 6.894531 4.175781 7.082031 3.695312 7.25 3.125 L 8.234375 -0.046875 L 0.6875 -22.84375 L 4.609375 -22.84375 L 10.140625 -5.40625 L 15.765625 -22.84375 L 19.390625 -22.84375 L 10.328125 4.046875 C 9.847656 5.460938 9.316406 6.554688 8.734375 7.328125 C 8.160156 8.097656 7.578125 8.613281 6.984375 8.875 C 6.398438 9.132812 5.757812 9.265625 5.0625 9.265625 Z M 5.0625 9.265625 "/></g></g></g><g fill="#f3e7d3" fill-opacity="1"><g transform="translate(66.540044, 42.29169)"><g/></g></g><g fill="#f3e7d3" fill-opacity="1"><g transform="translate(78.694828, 42.29169)"><g><path d="M 19.40625 -15.25 L 19.40625 0 L 15.765625 0 L 15.765625 -15.21875 C 15.765625 -16.5 15.628906 -17.503906 15.359375 -18.234375 C 15.085938 -18.972656 14.664062 -19.492188 14.09375 -19.796875 C 13.519531 -20.109375 12.753906 -20.265625 11.796875 -20.265625 C 10.671875 -20.265625 9.703125 -19.992188 8.890625 -19.453125 C 8.085938 -18.921875 7.46875 -18.171875 7.03125 -17.203125 C 6.601562 -16.242188 6.390625 -15.128906 6.390625 -13.859375 L 6.390625 0 L 2.75 0 L 2.75 -22.84375 L 6 -22.84375 L 6 -19.53125 C 7.863281 -22.082031 10.175781 -23.359375 12.9375 -23.359375 C 15.03125 -23.359375 16.628906 -22.738281 17.734375 -21.5 C 18.847656 -20.257812 19.40625 -18.175781 19.40625 -15.25 Z M 19.40625 -15.25 "/></g></g></g><g fill="#f3e7d3" fill-opacity="1"><g transform="translate(100.767053, 42.29169)"><g><path d="M 1.828125 -11.6875 C 1.828125 -13.914062 2.171875 -15.910156 2.859375 -17.671875 C 3.546875 -19.429688 4.582031 -20.816406 5.96875 -21.828125 C 7.351562 -22.847656 9.050781 -23.359375 11.0625 -23.359375 C 13.070312 -23.359375 14.757812 -22.863281 16.125 -21.875 C 17.5 -20.882812 18.523438 -19.5 19.203125 -17.71875 C 19.878906 -15.945312 20.21875 -13.867188 20.21875 -11.484375 C 20.21875 -7.742188 19.445312 -4.804688 17.90625 -2.671875 C 16.363281 -0.535156 14.082031 0.53125 11.0625 0.53125 C 7.9375 0.53125 5.613281 -0.535156 4.09375 -2.671875 C 2.582031 -4.816406 1.828125 -7.820312 1.828125 -11.6875 Z M 10.96875 -20.375 C 9.90625 -20.375 8.960938 -20.050781 8.140625 -19.40625 C 7.328125 -18.769531 6.6875 -17.800781 6.21875 -16.5 C 5.757812 -15.195312 5.53125 -13.570312 5.53125 -11.625 C 5.53125 -8.675781 6 -6.410156 6.9375 -4.828125 C 7.875 -3.242188 9.226562 -2.453125 11 -2.453125 C 12.675781 -2.453125 14.015625 -3.171875 15.015625 -4.609375 C 16.023438 -6.054688 16.53125 -8.460938 16.53125 -11.828125 C 16.53125 -14.609375 16.035156 -16.726562 15.046875 -18.1875 C 14.066406 -19.644531 12.707031 -20.375 10.96875 -20.375 Z M 10.96875 -20.375 "/></g></g></g><g fill="#f3e7d3" fill-opacity="1"><g transform="translate(122.817766, 42.29169)"><g><path d="M 18.703125 0 L 15.9375 -11.46875 C 15.320312 -14.019531 14.882812 -16.316406 14.625 -18.359375 C 14.46875 -17.460938 13.925781 -15.109375 13 -11.296875 L 10.3125 0 L 6.890625 0 L 0.328125 -22.84375 L 4.125 -22.84375 L 7.703125 -9.59375 C 7.984375 -8.53125 8.332031 -6.9375 8.75 -4.8125 C 9.09375 -7.070312 9.394531 -8.707031 9.65625 -9.71875 L 12.96875 -22.84375 L 16.671875 -22.84375 L 19.625 -9.421875 C 19.894531 -8.203125 20.1875 -6.578125 20.5 -4.546875 C 21 -6.585938 21.390625 -8.097656 21.671875 -9.078125 L 25.46875 -22.84375 L 29.09375 -22.84375 L 22.25 0 Z M 18.703125 0 "/></g></g></g></g></g></g><g transform="matrix(1, 0, 0, 1, 263, 14)"><g clip-path="url(#dcfe7cac34)"><g fill="#f3e7d3" fill-opacity="1"><g transform="translate(0.708959, 82.897872)"><g><path d="M 6.375 0 L 6.375 -9.0625 L 14.578125 -9.0625 L 14.578125 0 Z M 6.375 0 "/></g></g></g><g fill="#f3e7d3" fill-opacity="1"><g transform="translate(16.46334, 82.897872)"><g><path d="M 35.796875 -30.578125 L 29.34375 -29.3125 C 28.363281 -35.5625 25.359375 -38.6875 20.328125 -38.6875 C 17.140625 -38.6875 14.734375 -37.269531 13.109375 -34.4375 C 11.492188 -31.613281 10.6875 -27.382812 10.6875 -21.75 C 10.6875 -16.0625 11.503906 -11.78125 13.140625 -8.90625 C 14.773438 -6.039062 17.195312 -4.609375 20.40625 -4.609375 C 25.46875 -4.609375 28.570312 -8.378906 29.71875 -15.921875 L 36.40625 -15.1875 C 34.664062 -4.382812 29.25 1.015625 20.15625 1.015625 C 16.707031 1.015625 13.726562 0.140625 11.21875 -1.609375 C 8.71875 -3.367188 6.800781 -5.921875 5.46875 -9.265625 C 4.132812 -12.609375 3.46875 -16.625 3.46875 -21.3125 C 3.46875 -26.039062 4.140625 -30.132812 5.484375 -33.59375 C 6.835938 -37.050781 8.785156 -39.703125 11.328125 -41.546875 C 13.867188 -43.398438 16.910156 -44.328125 20.453125 -44.328125 C 28.941406 -44.328125 34.054688 -39.742188 35.796875 -30.578125 Z M 35.796875 -30.578125 "/></g></g></g><g fill="#f3e7d3" fill-opacity="1"><g transform="translate(48.910863, 82.897872)"><g><path d="M 3.46875 -22.15625 C 3.46875 -26.40625 4.117188 -30.195312 5.421875 -33.53125 C 6.734375 -36.863281 8.703125 -39.492188 11.328125 -41.421875 C 13.953125 -43.359375 17.171875 -44.328125 20.984375 -44.328125 C 24.785156 -44.328125 27.984375 -43.382812 30.578125 -41.5 C 33.179688 -39.625 35.128906 -37 36.421875 -33.625 C 37.722656 -30.257812 38.375 -26.316406 38.375 -21.796875 C 38.375 -14.691406 36.910156 -9.113281 33.984375 -5.0625 C 31.054688 -1.007812 26.722656 1.015625 20.984375 1.015625 C 15.046875 1.015625 10.640625 -1.015625 7.765625 -5.078125 C 4.898438 -9.148438 3.46875 -14.84375 3.46875 -22.15625 Z M 20.8125 -38.65625 C 18.800781 -38.65625 17.019531 -38.046875 15.46875 -36.828125 C 13.914062 -35.617188 12.695312 -33.773438 11.8125 -31.296875 C 10.925781 -28.828125 10.484375 -25.742188 10.484375 -22.046875 C 10.484375 -16.460938 11.375 -12.164062 13.15625 -9.15625 C 14.945312 -6.15625 17.515625 -4.65625 20.859375 -4.65625 C 24.046875 -4.65625 26.585938 -6.019531 28.484375 -8.75 C 30.390625 -11.488281 31.34375 -16.054688 31.34375 -22.453125 C 31.34375 -27.734375 30.410156 -31.753906 28.546875 -34.515625 C 26.679688 -37.273438 24.101562 -38.65625 20.8125 -38.65625 Z M 20.8125 -38.65625 "/></g></g></g><g fill="#f3e7d3" fill-opacity="1"><g transform="translate(85.562292, 82.897872)"><g><path d="M 59.75 -29.515625 L 59.75 0 L 52.859375 0 L 52.859375 -27.796875 C 52.859375 -31.523438 52.265625 -34.234375 51.078125 -35.921875 C 49.898438 -37.609375 48.140625 -38.453125 45.796875 -38.453125 C 42.421875 -38.453125 39.960938 -37.085938 38.421875 -34.359375 C 36.890625 -31.640625 36.125 -27.96875 36.125 -23.34375 L 36.125 0 L 29.21875 0 L 29.21875 -28.609375 C 29.21875 -31.390625 28.691406 -33.710938 27.640625 -35.578125 C 26.597656 -37.441406 24.742188 -38.375 22.078125 -38.375 C 18.679688 -38.375 16.171875 -37.03125 14.546875 -34.34375 C 12.929688 -31.664062 12.125 -27.921875 12.125 -23.109375 L 12.125 0 L 5.21875 0 L 5.21875 -43.34375 L 11.546875 -43.34375 L 11.546875 -36.859375 C 14.898438 -41.835938 19 -44.328125 23.84375 -44.328125 C 26.476562 -44.328125 28.707031 -43.707031 30.53125 -42.46875 C 32.351562 -41.226562 33.78125 -39.359375 34.8125 -36.859375 C 38.21875 -41.835938 42.503906 -44.328125 47.671875 -44.328125 C 51.429688 -44.328125 54.382812 -43.128906 56.53125 -40.734375 C 58.675781 -38.335938 59.75 -34.597656 59.75 -29.515625 Z M 59.75 -29.515625 "/></g></g></g></g></g></svg>